<svg width="180" height="300" viewBox="0 0 180 300" fill="none" xmlns="http://www.w3.org/2000/svg">
<path d="M0 294.833V58.0342C0 52.9823 6.4726 50.9325 9.35613 55.0711L174.337 291.87C176.723 295.295 174.285 300 170.124 300H5.14291C2.30256 300 0 297.688 0 294.833Z" fill="#FF7043"/>
<path d="M180 294.833V58.0342C180 52.9823 173.527 50.9325 170.644 55.0711L5.66273 291.87C3.27673 295.295 5.71524 300 9.87598 300H174.857C177.697 300 180 297.688 180 294.833Z" fill="#FF7043"/>
<path d="M87.5168 1.91788L80.0992 29.865C79.8619 30.7589 79.1668 31.4573 78.2771 31.6958L50.4612 39.1483C47.9159 39.8302 47.9159 43.4591 50.4612 44.1409L78.2771 51.5935C79.1668 51.8319 79.8619 52.5303 80.0992 53.4242L87.5168 81.3713C88.1954 83.9285 91.8073 83.9285 92.4859 81.3713L99.9035 53.4242C100.141 52.5303 100.836 51.8319 101.726 51.5935L129.542 44.1409C132.087 43.4591 132.087 39.8302 129.542 39.1483L101.726 31.6958C100.836 31.4573 100.141 30.7589 99.9035 29.865L92.4859 1.91788C91.8073 -0.639294 88.1954 -0.639294 87.5168 1.91788Z" fill="#FF7043"/>
</svg>
